<?xml version="1.0" standalone="no"?>
<!DOCTYPE svg PUBLIC "-//W3C//DTD SVG 20010904//EN"
 "http://www.w3.org/TR/2001/REC-SVG-20010904/DTD/svg10.dtd">
<svg version="1.0" xmlns="http://www.w3.org/2000/svg"
 width="67.000000pt" height="67.000000pt" viewBox="0 0 67.000000 67.000000"
 preserveAspectRatio="xMidYMid meet">

<g transform="translate(0.000000,67.000000) scale(0.100000,-0.100000)"
fill="#000000" stroke="none">
<path d="M0 335 l0 -335 335 0 335 0 0 335 0 335 -335 0 -335 0 0 -335z m402
50 c25 -71 47 -136 47 -142 1 -9 -13 -13 -38 -13 -36 0 -40 3 -46 30 -6 27
-11 30 -44 30 -32 0 -38 -4 -48 -30 -10 -26 -16 -30 -47 -30 -20 0 -36 4 -36
9 0 10 65 200 86 249 12 29 17 33 46 30 32 -3 33 -5 80 -133z m-220 -209 c5
-7 8 -6 8 4 0 10 10 15 30 15 23 0 30 -4 30 -20 0 -19 -7 -21 -75 -22 -73 -1
-75 -1 -75 22 0 22 3 23 38 18 20 -3 40 -11 44 -17z m209 -2 c6 -18 7 -18 11
1 4 19 4 19 10 -3 6 -21 4 -22 -68 -21 -73 1 -90 8 -81 32 3 8 25 12 63 11 47
-1 59 -5 65 -20z m121 16 c5 0 8 -7 6 -16 -2 -12 -16 -18 -45 -20 -37 -3 -43
0 -43 16 0 19 31 31 58 24 8 -2 18 -4 24 -4z m58 -15 c0 -18 -5 -25 -20 -25
-25 0 -27 37 -2 43 9 3 18 5 20 6 1 0 2 -10 2 -24z"/>
<path d="M310 398 c0 -7 -3 -23 -6 -35 -5 -19 -2 -23 16 -23 18 0 21 4 16 23
-3 12 -6 28 -6 35 0 6 -4 12 -10 12 -5 0 -10 -6 -10 -12z"/>
</g>
</svg>
